{
    "asset" : {
        "generator" : "Khronos glTF Blender I/O v1.8.19",
        "version" : "2.0"
    },
    "scene" : 0,
    "scenes" : [
        {
            "name" : "Scene",
            "nodes" : [
                0
            ]
        }
    ],
    "nodes" : [
        {
            "mesh" : 0,
            "name" : "\u9f99\u95e8\u540a04"
        }
    ],
    "materials" : [
        {
            "doubleSided" : true,
            "name" : "Mat3d66-748704-13-7637.002",
            "pbrMetallicRoughness" : {
                "baseColorFactor" : [
                    0.2666670083999634,
                    0.443136990070343,
                    0.6392160058021545,
                    1
                ],
                "metallicFactor" : 0,
                "roughnessFactor" : 0.5
            }
        },
        {
            "doubleSided" : true,
            "name" : "Mat3d66-748704-8-8869.002",
            "pbrMetallicRoughness" : {
                "baseColorFactor" : [
                    0.7686280012130737,
                    0.7686280012130737,
                    0.7686280012130737,
                    1
                ],
                "metallicFactor" : 0,
                "roughnessFactor" : 0.5
            }
        },
        {
            "doubleSided" : true,
            "name" : "Mat3d66-748704-11-6959.002",
            "pbrMetallicRoughness" : {
                "baseColorFactor" : [
                    0.21960799396038055,
                    0.2862749993801117,
                    0.33725500106811523,
                    1
                ],
                "metallicFactor" : 0,
                "roughnessFactor" : 0.5
            }
        },
        {
            "doubleSided" : true,
            "name" : "Mat3d66-748704-15-4210",
            "pbrMetallicRoughness" : {
                "baseColorFactor" : [
                    0.992156982421875,
                    0.7803919911384583,
                    0.1333329975605011,
                    1
                ],
                "metallicFactor" : 0,
                "roughnessFactor" : 0.5
            }
        },
        {
            "doubleSided" : true,
            "name" : "Mat3d66-748704-10-1340.001",
            "pbrMetallicRoughness" : {
                "baseColorFactor" : [
                    0.9843140244483948,
                    0.8509809970855713,
                    0.12156900018453598,
                    1
                ],
                "metallicFactor" : 0,
                "roughnessFactor" : 0.5
            }
        },
        {
            "doubleSided" : true,
            "name" : "Mat3d66-748704-14-4905.002",
            "pbrMetallicRoughness" : {
                "baseColorFactor" : [
                    0.24313700199127197,
                    0.2784309983253479,
                    0.3098039925098419,
                    1
                ],
                "metallicFactor" : 0,
                "roughnessFactor" : 0.5
            }
        }
    ],
    "meshes" : [
        {
            "name" : "Obj3d66-748704-20-863",
            "primitives" : [
                {
                    "attributes" : {
                        "POSITION" : 0,
                        "NORMAL" : 1,
                        "TEXCOORD_0" : 2
                    },
                    "indices" : 3,
                    "material" : 0
                },
                {
                    "attributes" : {
                        "POSITION" : 4,
                        "NORMAL" : 5,
                        "TEXCOORD_0" : 6
                    },
                    "indices" : 7,
                    "material" : 1
                },
                {
                    "attributes" : {
                        "POSITION" : 8,
                        "NORMAL" : 9,
                        "TEXCOORD_0" : 10
                    },
                    "indices" : 11,
                    "material" : 2
                },
                {
                    "attributes" : {
                        "POSITION" : 12,
                        "NORMAL" : 13,
                        "TEXCOORD_0" : 14
                    },
                    "indices" : 15,
                    "material" : 3
                },
                {
                    "attributes" : {
                        "POSITION" : 16,
                        "NORMAL" : 17,
                        "TEXCOORD_0" : 18
                    },
                    "indices" : 19,
                    "material" : 4
                },
                {
                    "attributes" : {
                        "POSITION" : 20,
                        "NORMAL" : 21,
                        "TEXCOORD_0" : 22
                    },
                    "indices" : 23,
                    "material" : 5
                }
            ]
        }
    ],
    "accessors" : [
        {
            "bufferView" : 0,
            "componentType" : 5126,
            "count" : 34006,
            "max" : [
                8.158157348632812,
                29.509511947631836,
                6.437493801116943
            ],
            "min" : [
                -19.68009376525879,
                0,
                -6.437493801116943
            ],
            "type" : "VEC3"
        },
        {
            "bufferView" : 1,
            "componentType" : 5126,
            "count" : 34006,
            "type" : "VEC3"
        },
        {
            "bufferView" : 2,
            "componentType" : 5126,
            "count" : 34006,
            "type" : "VEC2"
        },
        {
            "bufferView" : 3,
            "componentType" : 5123,
            "count" : 49128,
            "type" : "SCALAR"
        },
        {
            "bufferView" : 4,
            "componentType" : 5126,
            "count" : 740,
            "max" : [
                4.005453109741211,
                15.048807144165039,
                3.5892763137817383
            ],
            "min" : [
                -3.0083136558532715,
                11.099207878112793,
                -0.006274989806115627
            ],
            "type" : "VEC3"
        },
        {
            "bufferView" : 5,
            "componentType" : 5126,
            "count" : 740,
            "type" : "VEC3"
        },
        {
            "bufferView" : 6,
            "componentType" : 5126,
            "count" : 740,
            "type" : "VEC2"
        },
        {
            "bufferView" : 7,
            "componentType" : 5123,
            "count" : 1680,
            "type" : "SCALAR"
        },
        {
            "bufferView" : 8,
            "componentType" : 5126,
            "count" : 12,
            "max" : [
                5.6791253089904785,
                12.084304809570312,
                3.556999921798706
            ],
            "min" : [
                3.402996301651001,
                10.449775695800781,
                3.5569992065429688
            ],
            "type" : "VEC3"
        },
        {
            "bufferView" : 9,
            "componentType" : 5126,
            "count" : 12,
            "type" : "VEC3"
        },
        {
            "bufferView" : 10,
            "componentType" : 5126,
            "count" : 12,
            "type" : "VEC2"
        },
        {
            "bufferView" : 11,
            "componentType" : 5123,
            "count" : 12,
            "type" : "SCALAR"
        },
        {
            "bufferView" : 12,
            "componentType" : 5126,
            "count" : 166,
            "max" : [
                8.18834400177002,
                17.202106475830078,
                4.197352886199951
            ],
            "min" : [
                6.741583824157715,
                15.809696197509766,
                -1.8764865398406982
            ],
            "type" : "VEC3"
        },
        {
            "bufferView" : 13,
            "componentType" : 5126,
            "count" : 166,
            "type" : "VEC3"
        },
        {
            "bufferView" : 14,
            "componentType" : 5126,
            "count" : 166,
            "type" : "VEC2"
        },
        {
            "bufferView" : 15,
            "componentType" : 5123,
            "count" : 168,
            "type" : "SCALAR"
        },
        {
            "bufferView" : 16,
            "componentType" : 5126,
            "count" : 2944,
            "max" : [
                3.873967170715332,
                12.400229454040527,
                3.7049732208251953
            ],
            "min" : [
                2.549247980117798,
                12.013608932495117,
                3.3860912322998047
            ],
            "type" : "VEC3"
        },
        {
            "bufferView" : 17,
            "componentType" : 5126,
            "count" : 2944,
            "type" : "VEC3"
        },
        {
            "bufferView" : 18,
            "componentType" : 5126,
            "count" : 2944,
            "type" : "VEC2"
        },
        {
            "bufferView" : 19,
            "componentType" : 5123,
            "count" : 5082,
            "type" : "SCALAR"
        },
        {
            "bufferView" : 20,
            "componentType" : 5126,
            "count" : 774,
            "max" : [
                -17.086851119995117,
                15.183582305908203,
                1.8914482593536377
            ],
            "min" : [
                -18.726673126220703,
                7.821277141571045,
                0.2516223192214966
            ],
            "type" : "VEC3"
        },
        {
            "bufferView" : 21,
            "componentType" : 5126,
            "count" : 774,
            "type" : "VEC3"
        },
        {
            "bufferView" : 22,
            "componentType" : 5126,
            "count" : 774,
            "type" : "VEC2"
        },
        {
            "bufferView" : 23,
            "componentType" : 5123,
            "count" : 1320,
            "type" : "SCALAR"
        }
    ],
    "bufferViews" : [
        {
            "buffer" : 0,
            "byteLength" : 408072,
            "byteOffset" : 0
        },
        {
            "buffer" : 0,
            "byteLength" : 408072,
            "byteOffset" : 408072
        },
        {
            "buffer" : 0,
            "byteLength" : 272048,
            "byteOffset" : 816144
        },
        {
            "buffer" : 0,
            "byteLength" : 98256,
            "byteOffset" : 1088192
        },
        {
            "buffer" : 0,
            "byteLength" : 8880,
            "byteOffset" : 1186448
        },
        {
            "buffer" : 0,
            "byteLength" : 8880,
            "byteOffset" : 1195328
        },
        {
            "buffer" : 0,
            "byteLength" : 5920,
            "byteOffset" : 1204208
        },
        {
            "buffer" : 0,
            "byteLength" : 3360,
            "byteOffset" : 1210128
        },
        {
            "buffer" : 0,
            "byteLength" : 144,
            "byteOffset" : 1213488
        },
        {
            "buffer" : 0,
            "byteLength" : 144,
            "byteOffset" : 1213632
        },
        {
            "buffer" : 0,
            "byteLength" : 96,
            "byteOffset" : 1213776
        },
        {
            "buffer" : 0,
            "byteLength" : 24,
            "byteOffset" : 1213872
        },
        {
            "buffer" : 0,
            "byteLength" : 1992,
            "byteOffset" : 1213896
        },
        {
            "buffer" : 0,
            "byteLength" : 1992,
            "byteOffset" : 1215888
        },
        {
            "buffer" : 0,
            "byteLength" : 1328,
            "byteOffset" : 1217880
        },
        {
            "buffer" : 0,
            "byteLength" : 336,
            "byteOffset" : 1219208
        },
        {
            "buffer" : 0,
            "byteLength" : 35328,
            "byteOffset" : 1219544
        },
        {
            "buffer" : 0,
            "byteLength" : 35328,
            "byteOffset" : 1254872
        },
        {
            "buffer" : 0,
            "byteLength" : 23552,
            "byteOffset" : 1290200
        },
        {
            "buffer" : 0,
            "byteLength" : 10164,
            "byteOffset" : 1313752
        },
        {
            "buffer" : 0,
            "byteLength" : 9288,
            "byteOffset" : 1323916
        },
        {
            "buffer" : 0,
            "byteLength" : 9288,
            "byteOffset" : 1333204
        },
        {
            "buffer" : 0,
            "byteLength" : 6192,
            "byteOffset" : 1342492
        },
        {
            "buffer" : 0,
            "byteLength" : 2640,
            "byteOffset" : 1348684
        }
    ],
    "buffers" : [
        {
            "byteLength" : 1351324,
            "uri" : "data:application/octet-stream;base64,"
        }
    ]
}
